<?xml version="1.0" standalone="no"?>
<!DOCTYPE svg PUBLIC "-//W3C//DTD SVG 20010904//EN"
 "http://www.w3.org/TR/2001/REC-SVG-20010904/DTD/svg10.dtd">
<svg version="1.0" xmlns="http://www.w3.org/2000/svg"
 width="237.000000pt" height="241.000000pt" viewBox="0 0 237.000000 241.000000"
 preserveAspectRatio="xMidYMid meet">

<g transform="translate(0.000000,241.000000) scale(0.100000,-0.100000)"
fill="#000000" stroke="none">
<path d="M955 2390 c-284 -25 -563 -40 -733 -40 -179 0 -193 -1 -188 -17 23
-78 26 -193 11 -449 -8 -148 -20 -316 -25 -374 -23 -242 -23 -309 -1 -440 49
-284 159 -498 353 -686 119 -116 232 -191 388 -257 72 -30 98 -38 200 -57 294
-56 619 6 855 163 222 147 392 374 479 638 64 197 58 515 -15 721 -36 104
-133 287 -168 318 -4 3 -18 21 -33 42 -46 61 -169 176 -244 228 -131 90 -282
156 -449 195 -81 18 -303 26 -430 15z m368 -785 c147 -73 239 -248 207 -392
-33 -153 -124 -257 -260 -297 -173 -52 -362 34 -442 201 -19 41 -23 64 -23
153 0 95 3 111 28 162 46 94 143 174 241 199 17 5 67 7 111 5 64 -2 91 -8 138
-31z"/>
</g>
</svg>
