<svg width="24" height="24" viewBox="0 0 24 24" fill="none" xmlns="http://www.w3.org/2000/svg">
<rect width="24" height="24" rx="4" fill="black"/>
<path d="M15.7405 9.75443L16.7931 10.9955C16.9135 11.1369 17.0183 11.2468 17.0654 11.3149C17.3796 11.6291 17.5576 12.0533 17.5576 12.4931C17.5262 13.0116 17.1911 13.3676 16.8769 13.7499L16.1385 14.6139L15.7562 15.0643C15.7405 15.08 15.7353 15.1009 15.7301 15.1219C15.7248 15.1428 15.7301 15.1638 15.7405 15.1795C15.751 15.2004 15.7615 15.2162 15.7824 15.2266C15.7981 15.2371 15.8191 15.2423 15.84 15.2423H19.6837C20.2702 15.2423 21.0085 15.7346 20.9666 16.4834C20.9666 16.8238 20.8252 17.1484 20.5843 17.3893C20.3382 17.6302 20.0083 17.7664 19.6627 17.7664H13.6407C13.2427 17.7664 12.1797 17.8082 11.8812 16.9023C11.8184 16.7138 11.8079 16.5096 11.855 16.3158C11.944 16.0278 12.0802 15.7555 12.2582 15.5146C12.5619 15.0643 12.8866 14.6192 13.2113 14.1845C13.6302 13.6138 14.0544 13.0639 14.4785 12.4827C14.4942 12.4617 14.4995 12.4408 14.4995 12.4146C14.4995 12.3884 14.489 12.3675 14.4785 12.3465L12.9495 10.5504C12.939 10.5399 12.9285 10.5294 12.9128 10.519C12.8971 10.5137 12.8814 10.5085 12.8657 10.5085C12.85 10.5085 12.8342 10.5137 12.8185 10.519C12.8028 10.5242 12.7924 10.5347 12.7819 10.5504C12.3734 11.095 10.5773 13.509 10.195 14.0013C9.81276 14.4883 8.87018 14.5197 8.34652 14.0013L5.95342 11.6344C5.93771 11.6186 5.91676 11.6082 5.89581 11.6029C5.87487 11.5977 5.85392 11.6029 5.83298 11.6082C5.81203 11.6186 5.79632 11.6291 5.78585 11.6501C5.77537 11.6658 5.7649 11.6867 5.77014 11.7077V16.2582C5.77537 16.5829 5.68112 16.8971 5.4926 17.1641C5.30408 17.4312 5.04226 17.6302 4.7333 17.7402C4.53431 17.8082 4.32485 17.8292 4.12062 17.7978C3.9164 17.7664 3.71741 17.693 3.54984 17.5726C3.37703 17.4522 3.24088 17.2951 3.14662 17.1118C3.05237 16.9285 3 16.7243 3 16.5201V8.33532C3.01571 8.04208 3.12044 7.7593 3.30896 7.52366C3.49747 7.29325 3.74883 7.12568 4.03684 7.04713C4.28296 6.98429 4.54478 6.98429 4.7909 7.04713C5.03702 7.1152 5.26219 7.24088 5.44547 7.42416L9.12677 11.0531C9.13724 11.0636 9.15295 11.074 9.16342 11.0793C9.17913 11.0845 9.19484 11.0845 9.21055 11.0845C9.22626 11.0845 9.24197 11.0793 9.25244 11.0688C9.26815 11.0636 9.27863 11.0531 9.2891 11.0374L11.9021 7.47129C12.0226 7.32467 12.1744 7.20946 12.3472 7.13091C12.5201 7.05237 12.7086 7.00524 12.8971 7.00524H19.6941C19.8826 7.00524 20.0659 7.04713 20.2335 7.12044C20.4011 7.19899 20.5529 7.30896 20.6786 7.44511C20.799 7.58126 20.8933 7.74359 20.9457 7.92163C20.998 8.09968 21.0137 8.28296 20.9876 8.46624C20.9404 8.78043 20.7781 9.06844 20.532 9.27266C20.2859 9.47689 19.9717 9.59209 19.647 9.58686H15.84C15.8191 9.58686 15.8034 9.59209 15.7877 9.60257C15.772 9.61304 15.7562 9.62875 15.751 9.64446C15.7405 9.66017 15.7405 9.68112 15.7405 9.69683C15.7248 9.71777 15.7301 9.73872 15.7405 9.75443Z" fill="white"/>
</svg>
