<svg width="16" height="16" viewBox="0 0 16 16" fill="none" xmlns="http://www.w3.org/2000/svg">
<path d="M11.8794 10.8724L15.6745 8.69781C15.8757 8.58229 16 8.36805 16 8.13814V3.78883C16 3.55891 15.8757 3.3447 15.6745 3.22918L11.8794 1.05452C11.6782 0.939 11.4284 0.940123 11.2284 1.05452L7.43319 3.22918C7.23205 3.3447 7.10772 3.55891 7.10772 3.78883V11.5611L4.44614 13.0853L1.78456 11.5611V8.51166L4.44614 6.98748L6.20133 7.99345V5.94778L4.7716 5.12794C4.67327 5.07187 4.56031 5.04159 4.44614 5.04159C4.33196 5.04159 4.219 5.07187 4.12066 5.12794L0.325496 7.3026C0.124323 7.41812 0 7.63237 0 7.86227V12.2116C0 12.4415 0.124323 12.6557 0.325496 12.7712L4.12066 14.9459C4.3218 15.0603 4.57047 15.0603 4.7716 14.9459L8.56678 12.7712C8.76797 12.6557 8.89224 12.4415 8.89224 12.2116V4.4382L8.93972 4.41128L11.5527 2.91403L14.2143 4.4382V7.48768L11.5527 9.01185L9.79978 8.00804V10.0538L11.2272 10.8714C11.4284 10.9858 11.6782 10.9858 11.8782 10.8714L11.8794 10.8724Z" fill="black"/>
</svg>
