<svg width="24" height="24" viewBox="0 0 24 24" fill="none" xmlns="http://www.w3.org/2000/svg">
<g clip-path="url(#clip0_1_38)">
<path d="M4.80001 1.04612e-05C4.1693 -0.00130765 3.54453 0.121948 2.96157 0.362704C2.37861 0.60346 1.84894 0.956975 1.40296 1.40296C0.956975 1.84894 0.60346 2.37861 0.362704 2.96157C0.121948 3.54453 -0.00130765 4.1693 1.04612e-05 4.80001V19.2C-0.00130765 19.8307 0.121948 20.4555 0.362704 21.0384C0.60346 21.6214 0.956975 22.1511 1.40296 22.5971C1.84894 23.043 2.37861 23.3966 2.96157 23.6373C3.54453 23.8781 4.1693 24.0013 4.80001 24H19.2C19.8307 24.0013 20.4555 23.8781 21.0384 23.6373C21.6214 23.3966 22.1511 23.043 22.5971 22.5971C23.043 22.1511 23.3966 21.6214 23.6373 21.0384C23.8781 20.4555 24.0013 19.8307 24 19.2V4.80001C24.0013 4.1693 23.8781 3.54453 23.6373 2.96157C23.3966 2.37861 23.043 1.84894 22.5971 1.40296C22.1511 0.956975 21.6214 0.60346 21.0384 0.362704C20.4555 0.121948 19.8307 -0.00130765 19.2 1.04612e-05H4.80001ZM6.12001 7.68001H14.322C16.382 7.68001 17.988 8.12001 17.988 10.014C17.988 11.151 17.317 11.716 16.561 11.912C17.465 12.18 18.119 12.912 18.119 14.072V16.203H14.668V14.18C14.668 13.56 14.298 13.31 13.668 13.31H9.57201V16.203H6.12001V7.68001ZM9.57201 10.18V11.014H13.727C14.179 11.014 14.453 10.954 14.453 10.598C14.453 10.24 14.179 10.18 13.727 10.18H9.57201Z" fill="black"/>
</g>
<defs>
<clipPath id="clip0_1_38">
<rect width="24" height="24" fill="white"/>
</clipPath>
</defs>
</svg>
